<?xml version="1.0" encoding="UTF-8" standalone="no"?>
<!-- Created with Inkscape (http://www.inkscape.org/) -->

<svg
   xmlns:dc="http://purl.org/dc/elements/1.1/"
   xmlns:cc="http://creativecommons.org/ns#"
   xmlns:rdf="http://www.w3.org/1999/02/22-rdf-syntax-ns#"
   xmlns:svg="http://www.w3.org/2000/svg"
   xmlns="http://www.w3.org/2000/svg"
   xmlns:sodipodi="http://sodipodi.sourceforge.net/DTD/sodipodi-0.dtd"
   xmlns:inkscape="http://www.inkscape.org/namespaces/inkscape"
   width="1200"
   height="415"
   viewBox="0 0 317.5 109.80209"
   version="1.1"
   id="svg8"
   inkscape:version="0.92.2 (5c3e80d, 2017-08-06)"
   sodipodi:docname="background_mask.svg">
  <defs
     id="defs2" />
  <sodipodi:namedview
     id="base"
     pagecolor="#ffffff"
     bordercolor="#666666"
     borderopacity="1.0"
     inkscape:pageopacity="0.0"
     inkscape:pageshadow="2"
     inkscape:zoom="1.4142136"
     inkscape:cx="546.04444"
     inkscape:cy="186.95038"
     inkscape:document-units="mm"
     inkscape:current-layer="layer1"
     showgrid="false"
     inkscape:window-width="1920"
     inkscape:window-height="1025"
     inkscape:window-x="1920"
     inkscape:window-y="27"
     inkscape:window-maximized="1"
     units="px" />
  <metadata
     id="metadata5">
    <rdf:RDF>
      <cc:Work
         rdf:about="">
        <dc:format>image/svg+xml</dc:format>
        <dc:type
           rdf:resource="http://purl.org/dc/dcmitype/StillImage" />
        <dc:title></dc:title>
      </cc:Work>
    </rdf:RDF>
  </metadata>
  <g
     inkscape:label="Livello 1"
     inkscape:groupmode="layer"
     id="layer1"
     transform="translate(0,-187.19788)">
    <path
       id="rect950"
       style="fill:#000000;fill-opacity:1;stroke:none;stroke-width:3;stroke-miterlimit:4;stroke-dasharray:none;stroke-opacity:1"
       d="M 4.6279667,187.19789 H 0.78909852 l 2.585e-4,0.501 c 0,0.27844 0.02811,1.07618 0.06227,1.7725 0.058157,1.18525 0.069276,1.27364 0.17544148,1.38674 0.1069355,0.11392 0.1113765,0.14968 0.074673,0.6289 -0.062975,0.82222 -0.058911,0.9325 0.038755,1.04051 0.076919,0.0851 0.0894,0.21572 0.0894,0.92707 0,0.66619 0.01602,0.85058 0.081132,0.94361 0.063557,0.0908 0.073327,0.19084 0.04625,0.46587 -0.02786,0.283 -0.012445,0.42286 0.080356,0.72863 0.065829,0.21691 0.1021585,0.43867 0.085008,0.51935 -0.01646,0.0774 0.01395,0.3276 0.067696,0.55604 0.053741,0.22845 0.1263855,0.54394 0.1612305,0.70099 0.034855,0.15706 0.1107645,0.35308 0.1687235,0.43563 0.10729,0.15283 0.128376,0.52901 0.053485,0.95628 -0.025105,0.14321 -0.0125,0.17665 0.075706,0.19973 0.211143,0.0553 0.2875695,0.5939 0.212132,1.49293 -0.046725,0.55681 0.04126,1.43029 0.1937865,1.92546 0.1286175,0.41756 0.3420535,0.90804 0.383956,0.88212 0.02126,-0.0131 0.065851,0.0419 0.099219,0.12247 0.04669,0.11281 0.04637,0.17854 -0.00205,0.285 -0.034635,0.0761 -0.079813,0.13823 -0.1002525,0.13823 -0.02044,0 -0.086694,0.11538 -0.1472775,0.25632 -0.130094,0.30266 -0.139085,0.63624 -0.033075,1.22344 0.041245,0.22844 0.075742,0.60778 0.076739,0.84284 0.00105,0.23505 0.030095,0.59212 0.064596,0.79349 0.057062,0.33302 0.053845,0.38284 -0.03643,0.55061 -0.1116785,0.20754 -0.142016,0.55508 -0.078548,0.90098 0.034915,0.19028 0.024915,0.25738 -0.055035,0.36975 -0.15746,0.2213 -0.2074735,0.40105 -0.286546,1.03327 -0.060843,0.48648 -0.062928,0.66728 -0.011625,0.97514 0.078335,0.47015 -0.00155,1.12201 -0.1707905,1.39629 -0.090854,0.14712 -0.1059865,0.22961 -0.080873,0.44183 0.01699,0.14356 0.055128,0.29037 0.084749,0.32609 0.029615,0.0357 0.075546,0.1791 0.102061,0.31883 0.03898,0.20547 0.02258,0.38178 -0.086558,0.92114 -0.128563,0.63539 -0.1312915,0.68224 -0.057619,0.99038 0.054575,0.22829 0.065394,0.41387 0.03695,0.63097 -0.022165,0.16917 -0.0555,0.47113 -0.074156,0.67102 -0.01865,0.19988 -0.070032,0.46861 -0.1139465,0.59712 -0.055557,0.16255 -0.083558,0.47853 -0.092243,1.03844 -0.00686,0.44261 -0.03813,0.90993 -0.069505,1.03843 -0.096464,0.39504 -0.132413,1.25462 -0.061495,1.46968 0.03475,0.10538 0.081541,0.19172 0.104128,0.19172 0.022585,0 0.054692,0.0838 0.071314,0.1863 0.01662,0.10248 0.060623,0.22277 0.097668,0.26742 0.09832,0.11851 0.2059025,0.61184 0.2180745,0.99994 0.01274,0.40624 0.165403,1.09734 0.299465,1.35547 0.053503,0.10302 0.096545,0.25485 0.09586,0.33744 -8e-4,0.0826 0.012635,0.24652 0.029455,0.36406 0.051593,0.36052 -0.062208,1.08272 -0.2105815,1.3361 -0.159888,0.27305 -0.1626115,0.41466 -0.021705,1.17771 0.096176,0.52083 0.105727,0.7048 0.075706,1.47175 -0.024595,0.62831 -0.05667,0.9198 -0.11343,1.02965 -0.060241,0.11658 -0.066808,0.18946 -0.02687,0.30411 0.079171,0.22729 0.01557,0.87748 -0.1023195,1.04568 -0.054236,0.0774 -0.098443,0.21224 -0.098443,0.29998 0,0.0877 -0.035375,0.24436 -0.078549,0.34778 -0.109281,0.26176 -0.1100615,0.54297 -0.00205,0.77075 0.075016,0.15821 0.085412,0.26821 0.057103,0.60384 -0.02903,0.34425 -0.017505,0.45643 0.072088,0.69608 0.1256555,0.33611 0.1348185,0.67756 0.032555,1.21518 -0.165315,0.86907 -0.1850015,1.04508 -0.1850015,1.64692 0,0.59349 0.00856,0.64575 0.161747,0.97333 0.182471,0.39024 0.242515,0.85191 0.15813,1.21724 -0.046695,0.20217 -0.038975,0.24863 0.069247,0.41522 0.151739,0.23357 0.210567,0.46309 0.2865455,1.11828 0.059391,0.51217 0.061113,0.51666 0.2886131,0.73794 0.1967955,0.19142 0.2289265,0.25233 0.2289265,0.43434 0,0.11995 0.050489,0.30634 0.1165304,0.4302 0.1026265,0.19248 0.117189,0.29918 0.121698,0.89349 0.0028,0.37122 0.036225,0.87527 0.074155,1.12008 0.066514,0.42925 0.064683,0.45392 -0.048575,0.68808 -0.064599,0.13355 -0.1499385,0.24288 -0.189652,0.24288 -0.039705,0 -0.083394,0.0525 -0.097152,0.11678 -0.01375,0.0643 -0.094435,0.43228 -0.179317,0.81778 -0.1318431,0.5988 -0.1511361,0.77894 -0.1315166,1.23662 0.022255,0.51917 0.027965,0.53956 0.1785421,0.66637 0.154084,0.12975 0.1552875,0.13535 0.1552875,0.66585 0,0.43525 -0.01496,0.54074 -0.080357,0.56586 -0.1074405,0.0412 -0.3162756,0.52392 -0.3640601,0.84129 -0.021145,0.14039 -0.041545,0.46569 -0.045215,0.72269 -0.00435,0.30619 -0.046345,0.60888 -0.121698,0.87799 -0.070203,0.25071 -0.11498,0.55651 -0.11498,0.78522 0,0.41306 -0.1653775,0.88676 -0.356309,1.02061 -0.1018725,0.0714 -0.1018935,0.0748 -0.00285,0.43227 0.124986,0.4511 0.126227,0.73357 0.0044,0.93354 -0.109997,0.18051 -0.189015,1.02411 -0.1896525,2.02494 -6.5e-4,0.47499 0.02122,0.67562 0.090434,0.84465 0.1464575,0.35766 0.103837,1.04973 -0.071314,1.15807 -0.03006,0.0186 -0.055839,0.35738 -0.061495,0.80589 -0.00931,0.73877 -0.0042,0.78292 0.1167885,0.97772 0.1099745,0.17708 0.129805,0.28177 0.149345,0.79272 0.01713,0.44796 0.00165,0.66298 -0.064595,0.89917 -0.1378725,0.49178 -0.126291,1.88906 0.021445,2.59519 0.129528,0.61907 0.123197,1.16826 -0.016795,1.43815 -0.062892,0.12126 -0.086299,0.30143 -0.086299,0.66689 0,0.46423 0.013265,0.52871 0.180609,0.8816 0.09928,0.20938 0.2042,0.3954 0.233319,0.41341 0.02912,0.018 0.052968,0.11072 0.052968,0.20593 0,0.10378 0.03034,0.18463 0.075706,0.20205 0.08267,0.0317 0.072284,0.32019 -0.031005,0.86688 -0.045635,0.2415 -0.035375,0.38256 0.063045,0.87694 0.1257785,0.63178 0.123605,0.70011 -0.062528,2.12546 -0.04923,0.37694 -0.04957,0.55312 -0.00205,0.78315 0.0436,0.2113 0.04617,0.37616 0.00904,0.57206 -0.068584,0.36193 -0.068907,1.50714 -7.5e-4,1.50714 0.077096,0 0.061354,0.3576 -0.02687,0.61108 -0.050644,0.1455 -0.078019,0.43128 -0.079582,0.8307 -0.00135,0.33489 -0.00335,0.77266 -0.00465,0.97255 -0.00135,0.19989 0.00245,0.4568 0.00827,0.57102 0.00579,0.11422 -0.016915,0.32438 -0.050384,0.46716 -0.117276,0.5003 -0.118146,0.6162 -0.00646,0.90976 0.059953,0.15759 0.1565455,0.65502 0.2165245,1.11518 0.1242515,0.95322 0.111659,1.29176 -0.088108,2.36239 -0.093962,0.50358 -0.1285725,0.85423 -0.1227315,1.24591 0.0154,1.0326 0.0029,1.27323 -0.084749,1.63143 -0.074773,0.30551 -0.083442,0.5366 -0.058395,1.54409 0.02413,0.97047 0.044015,1.1992 0.109554,1.26478 0.044,0.044 0.093033,0.15538 0.109037,0.24727 0.08508,0.48837 0.110418,0.84912 0.073123,1.0418 -0.02295,0.11857 -0.042945,0.31499 -0.044185,0.43667 -0.0012,0.12167 -0.04835,0.32026 -0.104903,0.44131 -0.150836,0.32285 -0.2592885,0.71228 -0.2599325,0.93405 -6.5e-4,0.10709 -0.02035,0.19482 -0.0447,0.19482 -0.02435,0 -0.012775,0.12179 0.02584,0.27079 0.03862,0.149 0.07028,0.46696 0.07028,0.70667 0,0.41279 0.01247,0.4605 0.2335775,0.90253 0.128398,0.2567 0.233319,0.49957 0.233319,0.5395 0,0.0399 0.01875,0.0726 0.0416,0.0726 0.02285,0 -0.1678585,0.20328 -0.3707785,0.31704 -0.178454,0.29775 -0.791717,0.33711 -1.0110495,0.38628 -0.1671365,0.0375 0.00435,0.1831 -0.2446875,0.3607 -0.15191404,0.10835 -0.25502353,0.14068 -0.25502353,0.23202 0,0.10298 0.030915,0.17803 0.0813905,0.19741 0.049015,0.0188 0.15373453,0.26914 0.13668403,0.32401 -0.021915,0.0705 -0.26602702,1.02608 -0.26845902,1.0356 H 4.6279667 l 308.1863033,-1e-5 h 1.56683 l -0.14728,-0.40902 c -0.0678,-0.15767 -0.0828,-0.0919 -0.1943,-0.19766 0,0 -0.0577,0.0275 -0.0566,-0.2266 0.001,-0.2907 -0.27643,-0.57163 -0.18604,-0.83768 0.107,-0.31489 0.13509,-0.53989 0.18294,-1.46244 0.0311,-0.59967 0.0933,-1.468 0.13824,-1.9296 0.11622,-1.19376 0.0817,-2.47376 -0.0783,-2.89905 -0.0645,-0.17133 -0.14056,-0.40486 -0.16899,-0.51909 -0.0941,-0.37799 -0.16155,-0.67232 -0.20257,-0.88263 -0.0223,-0.11422 -0.0802,-0.31281 -0.12841,-0.44131 -0.0676,-0.18004 -0.0799,-0.31707 -0.0532,-0.59713 0.0314,-0.33052 0.13141,-1.75992 0.13617,-1.94691 0.008,-0.3047 -0.0845,-0.82464 -0.16718,-0.94257 -0.0824,-0.11764 -0.0956,-0.23162 -0.0907,-0.77877 0.003,-0.35254 0.0345,-0.75794 0.0698,-0.90072 h -2.5e-4 c 0.0352,-0.14278 0.11111,-0.35293 0.16872,-0.46715 0.19387,-0.38439 0.28108,-0.74403 0.32918,-1.36013 0.0263,-0.33704 0.0622,-0.69916 0.0798,-0.8046 0.0231,-0.13806 -0.0123,-0.33426 -0.12635,-0.70099 -0.22811,-0.73373 -0.26013,-0.8766 -0.31342,-1.39423 -0.0263,-0.25567 -0.0721,-0.55772 -0.1018,-0.67128 -0.0482,-0.18476 -0.0407,-0.22386 0.0729,-0.37284 0.0698,-0.0916 0.12725,-0.22065 0.12764,-0.28681 10e-4,-0.24532 0.0675,-0.3602 0.26536,-0.46121 0.11047,-0.0564 0.20141,-0.11973 0.20232,-0.14056 10e-4,-0.0208 0.0367,-0.27151 0.0796,-0.55707 0.0428,-0.28556 0.0999,-0.91321 0.12661,-1.39501 0.0388,-0.70048 0.0694,-0.91916 0.15244,-1.09088 0.12531,-0.25906 0.14274,-0.71131 0.0568,-1.46762 -0.0701,-0.61685 -0.007,-0.8715 0.22816,-0.93069 0.1257,-0.0316 0.13306,-0.0521 0.13306,-0.36871 0,-0.18439 0.0228,-0.37764 0.0507,-0.42969 0.0279,-0.052 0.0653,-0.36028 0.0832,-0.68471 0.0179,-0.32444 0.0737,-0.7299 0.12402,-0.90124 0.0503,-0.17133 0.10741,-0.42086 0.12686,-0.55449 0.0195,-0.13363 0.0811,-0.30105 0.13669,-0.37181 0.0556,-0.0708 0.10103,-0.19808 0.10103,-0.28319 0,-0.0851 0.0584,-0.35645 0.1297,-0.6028 0.14108,-0.48719 0.1545,-0.60813 0.0824,-0.74543 -0.026,-0.0496 -0.085,-0.48736 -0.131,-0.97281 -0.0461,-0.48545 -0.11112,-1.0298 -0.14444,-1.20975 -0.0465,-0.25139 -0.0461,-0.38082 0.001,-0.55888 0.0341,-0.12744 0.0618,-0.48557 0.0618,-0.79556 0,-0.40775 0.0271,-0.6478 0.0974,-0.86868 0.0535,-0.16791 0.11441,-0.41048 0.13565,-0.53898 0.0212,-0.12851 0.0682,-0.29216 0.10438,-0.36355 0.0472,-0.0932 0.0582,-0.30273 0.0385,-0.74388 -0.0234,-0.52412 -0.0416,-0.62326 -0.12376,-0.67464 -0.0696,-0.0435 -0.0964,-0.12213 -0.0964,-0.28344 0,-0.14893 -0.0541,-0.32695 -0.16226,-0.53485 l -0.16201,-0.31187 0.19043,-0.45966 c 0.23664,-0.57137 0.272,-0.77166 0.17105,-0.96842 -0.0426,-0.083 -0.10619,-0.29031 -0.14134,-0.46095 -0.0351,-0.17065 -0.0998,-0.3366 -0.14366,-0.36871 -0.1476,-0.10801 -0.0521,-0.57112 0.22247,-1.07926 l 0.24314,-0.45036 -0.0623,-0.45321 c -0.0343,-0.24933 -0.12103,-0.62867 -0.19275,-0.84284 -0.10781,-0.32191 -0.13165,-0.49728 -0.13747,-1.01234 -0.005,-0.41529 0.0147,-0.66105 0.0579,-0.73665 0.0393,-0.0687 0.0649,-0.30632 0.0649,-0.60332 0,-0.32845 0.0283,-0.56529 0.0855,-0.71753 0.0571,-0.1519 0.0871,-0.4033 0.0907,-0.75912 0.005,-0.50566 0.0129,-0.54177 0.15607,-0.72141 0.0829,-0.10398 0.16988,-0.29148 0.19327,-0.41677 0.0533,-0.28564 0.18565,-0.46966 0.36742,-0.51134 0.12096,-0.0277 0.13641,-0.0524 0.11188,-0.17518 -0.0157,-0.0785 0.009,-0.23144 0.054,-0.34003 0.0471,-0.11283 0.0826,-0.34492 0.0827,-0.54157 2.6e-4,-0.6637 -0.11389,-2.00798 -0.19146,-2.2549 -0.063,-0.20045 -0.0675,-0.3124 -0.0235,-0.57102 0.10397,-0.6115 0.16286,-1.13646 0.13307,-1.18469 -0.0581,-0.0941 -0.0285,-1.49449 0.0341,-1.61153 0.0426,-0.0797 0.0487,-0.23264 0.0199,-0.5072 -0.0227,-0.21621 -0.0455,-1.25751 -0.0506,-2.31407 -0.008,-1.61188 -0.0231,-1.96698 -0.0946,-2.20659 -0.0469,-0.15705 -0.0854,-0.4029 -0.0858,-0.54621 -0.001,-0.31356 0.26722,-1.41603 0.38964,-1.60301 0.0557,-0.085 0.0937,-0.27018 0.10491,-0.51082 0.01,-0.20753 0.0409,-0.53874 0.0695,-0.73587 0.0419,-0.2885 0.0376,-0.38671 -0.0228,-0.50359 -0.0412,-0.0799 -0.0752,-0.26014 -0.0752,-0.40075 0,-0.1406 -0.0385,-0.35796 -0.0855,-0.48291 -0.13161,-0.34958 -0.12855,-1.52083 0.005,-1.96655 0.12383,-0.41278 0.13751,-1.4534 0.0209,-1.59939 -0.12681,-0.15879 -0.19226,-0.30582 -0.22686,-0.50979 -0.0188,-0.1106 -0.0703,-0.30051 -0.11447,-0.42193 -0.0563,-0.15473 -0.0718,-0.32395 -0.0524,-0.56586 0.0179,-0.22331 -0.006,-0.53088 -0.0672,-0.87126 -0.0933,-0.51796 -0.1343,-0.65691 -0.36148,-1.2237 -0.14005,-0.34944 -0.12225,-0.8921 0.0401,-1.22008 0.12407,-0.25071 0.18329,-1.14345 0.10517,-1.58337 -0.0746,-0.4198 -0.38961,-1.02319 -0.56664,-1.08495 -0.20863,-0.0728 -0.29914,-0.25113 -0.36819,-0.72527 -0.0549,-0.37715 -0.0521,-0.44078 0.0266,-0.57413 0.0752,-0.12747 0.0886,-0.301 0.0886,-1.15859 0,-0.5548 -0.0176,-1.02616 -0.039,-1.04748 -0.0497,-0.0495 -0.16448,-1.04348 -0.19843,-1.71798 -0.0143,-0.28556 -0.0601,-0.66647 -0.10181,-0.84672 -0.0895,-0.3874 -0.0967,-0.99039 -0.0152,-1.28183 0.0319,-0.11423 0.0786,-0.67507 0.10387,-1.24618 0.0252,-0.57111 0.0583,-1.30555 0.0736,-1.6322 0.0226,-0.48164 0.0113,-0.63749 -0.0599,-0.82398 -0.061,-0.15994 -0.0791,-0.31335 -0.0594,-0.5041 0.0172,-0.16669 0.002,-0.35279 -0.0405,-0.47439 -0.0783,-0.22749 -0.0663,-0.84943 0.0207,-1.07281 0.0935,-0.24018 0.0739,-2.39711 -0.0261,-2.88018 -0.098,-0.47338 -0.0728,-0.72357 0.11369,-1.13456 0.0759,-0.16716 0.17827,-0.47171 0.22763,-0.6767 l 0.0897,-0.37285 -0.15477,-0.23822 c -0.1561,-0.24015 -0.17168,-0.30997 -0.29792,-1.34824 -0.0397,-0.32617 -0.0339,-0.46491 0.0274,-0.67154 0.10887,-0.3669 0.0966,-0.58057 -0.0509,-0.88522 -0.0705,-0.14562 -0.16258,-0.46343 -0.20438,-0.70615 -0.0418,-0.24273 -0.0977,-0.53779 -0.12428,-0.65578 -0.054,-0.23999 0.002,-0.70629 0.1186,-0.98521 0.0614,-0.14702 0.0653,-0.35447 0.0232,-1.24127 -0.0456,-0.96216 -0.0653,-1.10854 -0.20232,-1.51851 -0.27925,-0.83563 -0.34072,-1.99833 -0.18009,-3.40548 0.0937,-0.82117 0.0837,-1.11858 -0.0633,-1.85415 l -0.0305,-0.15244 h -1.56942 z"
       inkscape:connector-curvature="0"
       sodipodi:nodetypes="cccccccsccccccccccccccsccccccccccccccccccsccsccccccccccccscccccscccccsccccsccscscccssccccccccccccsccsccccccscccccccccccccccccscscsscccscccccccccccccccccccccccccccccccccccccsccsscscccscscccccsccccccccccccscccccccccccccsccccccscccccccccccccscccccccccccccccccccccccccccc" />
  </g>
</svg>
