<?xml version="1.0" encoding="UTF-8" standalone="no"?>
<!-- Created with Inkscape (http://www.inkscape.org/) -->

<svg
   xmlns:dc="http://purl.org/dc/elements/1.1/"
   xmlns:cc="http://creativecommons.org/ns#"
   xmlns:rdf="http://www.w3.org/1999/02/22-rdf-syntax-ns#"
   xmlns:svg="http://www.w3.org/2000/svg"
   xmlns="http://www.w3.org/2000/svg"
   xmlns:sodipodi="http://sodipodi.sourceforge.net/DTD/sodipodi-0.dtd"
   xmlns:inkscape="http://www.inkscape.org/namespaces/inkscape"
   width="300"
   height="300"
   viewBox="0 0 79.374998 79.375001"
   version="1.1"
   id="svg4592"
   inkscape:version="0.92.2 (5c3e80d, 2017-08-06)"
   sodipodi:docname="corner.svg">
  <defs
     id="defs4586">
    <inkscape:path-effect
       is_visible="true"
       id="path-effect5474"
       effect="spiro" />
    <inkscape:path-effect
       effect="spiro"
       id="path-effect5291"
       is_visible="true" />
    <inkscape:path-effect
       is_visible="true"
       id="path-effect5287"
       effect="spiro" />
    <inkscape:path-effect
       effect="spiro"
       id="path-effect5283"
       is_visible="true" />
    <inkscape:path-effect
       is_visible="true"
       id="path-effect5262"
       effect="spiro" />
    <inkscape:path-effect
       effect="spiro"
       id="path-effect5258"
       is_visible="true" />
    <inkscape:path-effect
       is_visible="true"
       id="path-effect5244"
       effect="spiro" />
    <inkscape:path-effect
       effect="spiro"
       id="path-effect5240"
       is_visible="true" />
  </defs>
  <sodipodi:namedview
     id="base"
     pagecolor="#ffffff"
     bordercolor="#666666"
     borderopacity="1.0"
     inkscape:pageopacity="0.0"
     inkscape:pageshadow="2"
     inkscape:zoom="1"
     inkscape:cx="362.85719"
     inkscape:cy="38.340788"
     inkscape:document-units="mm"
     inkscape:current-layer="layer1"
     showgrid="false"
     inkscape:lockguides="true"
     units="px"
     inkscape:window-width="1920"
     inkscape:window-height="1025"
     inkscape:window-x="1920"
     inkscape:window-y="27"
     inkscape:window-maximized="1" />
  <metadata
     id="metadata4589">
    <rdf:RDF>
      <cc:Work
         rdf:about="">
        <dc:format>image/svg+xml</dc:format>
        <dc:type
           rdf:resource="http://purl.org/dc/dcmitype/StillImage" />
        <dc:title></dc:title>
      </cc:Work>
    </rdf:RDF>
  </metadata>
  <g
     inkscape:label="Livello 1"
     inkscape:groupmode="layer"
     id="layer1"
     transform="translate(0,-217.62499)">
    <path
       d="m 40.9512,233.00609 c -0.193798,-0.0203 -0.392384,0.0125 -0.571049,0.0903 -0.178666,0.0778 -0.337258,0.2 -0.461233,0.35034 -0.247951,0.30067 -0.350149,0.7092 -0.304066,1.09619 0.03612,0.3033 0.159378,0.59487 0.346651,0.83617 0.187273,0.2413 0.43758,0.43222 0.717223,0.55509 0.559284,0.24573 1.224645,0.20841 1.775865,-0.0549 0.6391,-0.30531 1.118222,-0.89271 1.378756,-1.55133 0.260534,-0.65862 0.316575,-1.38433 0.258269,-2.09021 -0.146329,-1.77152 -1.012715,-3.45691 -2.305199,-4.67722 -1.570938,-1.48322 -3.703191,-2.26718 -5.846522,-2.53906 -1.742898,-0.22108 -3.519064,-0.12689 -5.245164,0.20045 -2.511645,0.47631 -4.901615,1.436 -7.349913,2.17157 -2.135337,0.64155 -4.356791,1.11674 -6.58151,0.96885 -2.239242,-0.14886 -4.459516,-0.95961 -6.147199,-2.43883 -0.7197179,-0.63082 -1.3416503,-1.38193 -1.770357,-2.23758 -0.4287067,-0.85565 -0.6594363,-1.81844 -0.6016587,-2.77373 0.049256,-0.81439 0.3201966,-1.63432 0.868625,-2.23838 0.3228678,-0.35562 0.7409885,-0.63092 1.2060717,-0.75095 0.465083,-0.12003 0.976728,-0.0778 1.399807,0.14959 0.375064,0.2016 0.673736,0.5508 0.789728,0.9605 0.058,0.20486 0.07072,0.42279 0.03351,0.63242 -0.03721,0.20963 -0.12459,0.41059 -0.255293,0.57865 -0.202595,0.2605 -0.5102,0.43685 -0.837369,0.48007 -0.32717,0.0432 -0.670012,-0.0472 -0.933292,-0.24621 0.260034,0.20685 0.605583,0.30261 0.934995,0.2591 0.329411,-0.0435 0.638251,-0.22569 0.835666,-0.49296 0.124874,-0.16906 0.205615,-0.36973 0.237428,-0.57748 0.03181,-0.20776 0.01507,-0.42227 -0.04393,-0.624 -0.118003,-0.40345 -0.404517,-0.74805 -0.761442,-0.97009 -0.425816,-0.2649 -0.947916,-0.36019 -1.445227,-0.29559 -0.4973114,0.0646 -0.9689169,0.28373 -1.3611037,0.59627 -0.7117665,0.56722 -1.1514372,1.42164 -1.3697567,2.3052 -0.2780925,1.12547 -0.2229855,2.32603 0.1207964,3.4332 0.3437818,1.10717 0.9717829,2.12013 1.7834993,2.94786 1.8174277,1.85328 4.4869407,2.71035 7.0826417,2.7061 2.449945,-0.004 4.843674,-0.70879 7.149458,-1.5368 2.308006,-0.82881 4.57535,-1.78934 6.949009,-2.40542 1.732087,-0.44956 3.525995,-0.7131 5.311981,-0.60136 2.139066,0.13383 4.303315,0.85132 5.846522,2.33861 1.234526,1.18979 2.01761,2.86257 2.037929,4.57699 0.0074,0.6259 -0.08679,1.26223 -0.357441,1.82664 -0.270649,0.5644 -0.730064,1.05233 -1.312992,1.28037 -0.362218,0.1417 -0.773093,0.17863 -1.142128,0.0558 -0.184517,-0.0614 -0.356575,-0.16217 -0.496012,-0.29773 -0.139438,-0.13556 -0.245633,-0.30618 -0.299565,-0.49303 -0.08098,-0.28055 -0.03748,-0.5972 0.126963,-0.8385 0.08222,-0.12065 0.193047,-0.22191 0.321447,-0.2914 0.128401,-0.0695 0.274218,-0.10696 0.420217,-0.10622 0.197233,9.9e-4 0.393365,0.073 0.544389,0.19986 0.151024,0.12686 0.255803,0.30762 0.290826,0.50172 -0.02575,-0.24567 -0.138138,-0.48138 -0.312803,-0.65605 -0.174664,-0.17466 -0.41038,-0.28705 -0.656047,-0.3128 z m 26.660134,-3.10701 c -0.433421,0.21554 -0.747438,0.64677 -0.841423,1.12161 -0.09398,0.47485 0.027,0.98379 0.306338,1.37912 0.279334,0.39533 0.709792,0.67615 1.178979,0.7952 0.469187,0.11905 0.97362,0.0797 1.427446,-0.0887 0.456398,-0.16934 0.860906,-0.46533 1.18537,-0.82823 0.324464,-0.3629 0.570837,-0.79141 0.75233,-1.24311 0.401879,-1.0002 0.485993,-2.11858 0.283886,-3.17738 -0.202107,-1.0588 -0.684913,-2.05706 -1.352966,-2.903 -0.918459,-1.16302 -2.177646,-2.03437 -3.54938,-2.59521 -1.371734,-0.56083 -2.85429,-0.82026 -4.335068,-0.87929 -2.925613,-0.11662 -5.851423,0.54068 -8.552623,1.67043 -4.18549,1.75054 -7.839862,4.60137 -12.027129,6.34765 -1.98561,0.82809 -4.079664,1.40038 -6.214014,1.67044 -1.582631,0.20025 -3.198249,0.23344 -4.765701,-0.0631 -1.567452,-0.29651 -3.088945,-0.93489 -4.301603,-1.97137 -1.212658,-1.03648 -2.098128,-2.48806 -2.314174,-4.06861 -0.108024,-0.79028 -0.04894,-1.60514 0.191197,-2.36576 0.240136,-0.76062 0.662682,-1.46544 1.234489,-2.02153 0.335974,-0.32674 0.725439,-0.60355 1.160552,-0.77766 0.435114,-0.17412 0.917543,-0.24233 1.378509,-0.15778 0.579737,0.10634 1.117032,0.46873 1.393561,0.98924 0.138265,0.26026 0.210936,0.55588 0.202965,0.85048 -0.008,0.29459 -0.09727,0.58738 -0.260179,0.83297 -0.156787,0.23636 -0.380987,0.42746 -0.639199,0.54483 -0.258211,0.11737 -0.54961,0.16064 -0.830784,0.12335 0.281111,0.0362 0.572068,-0.008 0.830093,-0.12487 0.258024,-0.11728 0.482314,-0.30772 0.63989,-0.54331 0.164304,-0.24565 0.255249,-0.53881 0.264508,-0.83419 0.0093,-0.29539 -0.06253,-0.5922 -0.200719,-0.85343 -0.276381,-0.52246 -0.817518,-0.88553 -1.400136,-0.98507 -0.460279,-0.0786 -0.939389,-0.002 -1.37189,0.17376 -0.4325,0.17602 -0.820867,0.44845 -1.167171,0.76168 -1.29656,1.17275 -2.001798,2.93967 -1.980957,4.6878 0.02084,1.74813 0.739642,3.45932 1.88901,4.77665 1.149367,1.31733 2.710468,2.24831 4.385813,2.74793 1.675345,0.49963 3.461112,0.57906 5.194204,0.34929 2.443003,-0.32389 4.773229,-1.24821 6.949006,-2.40543 4.096659,-2.17887 7.718627,-5.19129 11.893494,-7.21628 2.627942,-1.27467 5.498246,-2.14907 8.418988,-2.13815 1.489318,0.006 2.987907,0.24505 4.365545,0.81093 1.377637,0.56588 2.631307,1.46763 3.518903,2.66357 0.62128,0.83711 1.059785,1.81925 1.200155,2.85223 0.14037,1.03297 -0.02669,2.11587 -0.531975,3.0277 -0.21412,0.3864 -0.488604,0.74218 -0.827444,1.02562 -0.338839,0.28344 -0.743595,0.49294 -1.177086,0.578 -0.346333,0.068 -0.710723,0.0551 -1.045656,-0.0561 -0.334933,-0.11129 -0.638744,-0.3233 -0.843058,-0.61108 -0.204315,-0.28779 -0.304724,-0.65166 -0.257813,-1.00147 0.04691,-0.3498 0.245539,-0.68029 0.542917,-0.87037 0.273628,-0.1749 0.623783,-0.22493 0.93544,-0.13364 -0.315361,-0.0566 -0.648551,-0.009 -0.93544,0.13364 z"
       inkscape:original-d="m 40.9512,233.00609 c -0.28928,0.41177 -1.982514,1.29207 -1.336348,1.5368 0.646165,0.24473 2.282661,2.37228 2.839739,1.33634 0.557075,-1.03593 2.316071,-2.11562 1.637025,-3.64154 -0.679045,-1.52593 -0.356625,-3.89742 -2.305199,-4.67722 -1.948577,-0.7798 -4.076126,-2.73925 -5.846522,-2.53906 -1.770395,0.20019 -2.929094,-0.60109 -5.245164,0.20045 -2.316072,0.80155 -4.967022,1.65957 -7.349913,2.17157 -2.382887,0.512 -4.220893,1.87115 -6.58151,0.96885 -2.360615,-0.9023 -5.512699,-0.31155 -6.147199,-2.43883 -0.6345007,-2.12729 -2.8288654,-4.24264 -2.3720157,-5.01131 0.456851,-0.76866 -0.06708,-2.13789 0.868625,-2.23838 0.9357077,-0.10049 2.4162967,-1.32495 2.6058787,-0.60136 0.189579,0.72359 1.157901,2.09388 0.567947,2.17157 -0.589955,0.0777 -1.180177,0.15564 -1.770661,0.23386 0.590484,-0.0782 1.180706,-0.15617 1.770661,-0.23386 0.589954,-0.0777 -0.378368,-1.44798 -0.567947,-2.17157 -0.189582,-0.72359 -1.8706227,0.20019 -2.8063307,0.30068 -0.9357077,0.10049 -0.9129057,1.53654 -1.3697567,2.3052 -0.456849,0.76866 1.2697947,4.25378 1.9042957,6.38106 0.6344997,2.12728 4.7220267,1.80381 7.0826417,2.7061 2.360617,0.9023 4.766571,-1.02479 7.149458,-1.5368 2.382891,-0.512 4.632937,-1.60388 6.949009,-2.40542 2.31607,-0.80155 3.541586,-0.40117 5.311981,-0.60136 1.770396,-0.20019 3.897945,1.55881 5.846522,2.33861 1.948574,0.7798 1.358884,3.05106 2.037929,4.57699 0.679046,1.52593 -1.113358,2.07108 -1.670433,3.10701 -0.557078,1.03593 -1.29154,-0.49026 -1.937705,-0.73499 -0.646166,-0.24473 0.579347,-0.82435 0.868627,-1.23612 0.289277,-0.41178 0.557075,0.46745 0.835215,0.70158 -0.27814,-0.23413 -0.679573,-1.38063 -0.96885,-0.96885 z m 26.660134,-3.10701 c 0.5348,0.84609 1.4029,3.74204 2.07134,3.20723 0.66843,-0.5348 2.16016,-0.11109 1.9377,-2.07134 -0.22246,-1.96024 1.55881,-4.92195 -1.06908,-6.08038 -2.62788,-1.15843 -5.07838,-4.18696 -7.884448,-3.4745 -2.80606,0.71245 -4.58839,-0.73473 -8.552623,1.67043 -3.964233,2.40516 -9.711057,5.54611 -12.027129,6.34765 -2.31607,0.80155 -3.482521,6.15094 -6.214014,1.67044 -2.226984,-3.65295 -10.802411,-10.17825 -9.955792,-10.49033 0.846619,-0.31208 2.093347,-1.82608 2.539061,-0.93544 0.445715,0.89063 1.826078,2.45023 1.336347,2.67269 -0.489728,0.22246 -0.979723,0.48973 -1.469983,0.66818 0.49026,-0.17845 0.980255,-0.44572 1.469983,-0.66818 0.489731,-0.22246 -0.890632,-1.78206 -1.336347,-2.67269 -0.445714,-0.89064 -1.692442,0.62336 -2.539061,0.93544 -0.846619,0.31208 6.325643,8.37418 9.48807,12.56167 3.162424,4.18749 4.632936,-1.60388 6.949006,-2.40543 2.316072,-0.80154 7.929261,-4.81111 11.893494,-7.21628 3.964238,-2.40516 5.612928,-1.4257 8.418988,-2.13815 2.806068,-0.71246 5.256568,2.31607 7.884448,3.4745 2.62789,1.15843 0.44572,3.91969 0.66818,5.87993 0.22246,1.96024 -1.33609,1.06882 -2.00453,1.60362 -0.66843,0.5348 -1.06881,-1.69297 -1.60361,-2.53906 -0.53481,-0.84609 0.62389,-0.0894 0.93544,-0.13364 -0.31155,0.0443 -1.47025,-0.71245 -0.93544,0.13364 z"
       inkscape:path-effect="#path-effect5291"
       style="fill:#000000;fill-opacity:1;stroke:#000000;stroke-width:0.26458332;stroke-linecap:butt;stroke-linejoin:miter;stroke-miterlimit:4;stroke-dasharray:none;stroke-opacity:1"
       id="path5289"
       inkscape:connector-curvature="0" />
    <path
       inkscape:connector-curvature="0"
       id="path5330"
       style="fill:#000000;fill-opacity:1;stroke:#000000;stroke-width:0.26458332;stroke-linecap:butt;stroke-linejoin:miter;stroke-miterlimit:4;stroke-dasharray:none;stroke-opacity:1"
       inkscape:path-effect="#path-effect5474"
       inkscape:original-d="m 15.381153,258.57617 c 0.41177,-0.28928 1.29207,-1.98251 1.5368,-1.33635 0.24473,0.64617 2.37228,2.28267 1.33634,2.83974 -1.03593,0.55708 -2.11562,2.31607 -3.64154,1.63703 -1.52593,-0.67905 -3.89742,-0.35663 -4.6772198,-2.3052 -0.7798,-1.94858 -2.73925,-4.07613 -2.53906,-5.84652 0.20019,-1.7704 -0.60109,-2.9291 0.20045,-5.24517 0.80155,-2.31607 1.65957,-4.96702 2.17157,-7.34991 0.5119998,-2.38289 1.8711498,-4.22089 0.9688498,-6.58151 -0.9022998,-2.36061 -0.31155,-5.5127 -2.4388298,-6.1472 -2.12729,-0.6345 -4.24264,-2.82887 -5.01131,-2.37202 -0.76866,0.45686 -2.13789,-0.0671 -2.23838,0.86863 -0.10048995,0.93571 -1.32494995,2.4163 -0.60135995,2.60588 0.72358995,0.18958 2.09387995,1.1579 2.17156995,0.56795 0.0777,-0.58996 0.15564,-1.18018 0.23386,-1.77066 -0.0782,0.59048 -0.15617,1.1807 -0.23386,1.77066 -0.0777,0.58995 -1.44798,-0.37837 -2.17156995,-0.56795 -0.72359,-0.18958 0.20019,-1.87062 0.30068,-2.80633 0.10049,-0.93571 1.53653995,-0.91291 2.30519995,-1.36976 0.76866,-0.45685 4.25378,1.2698 6.38106,1.9043 2.1272798,0.6345 1.8038098,4.72202 2.7060998,7.08264 0.9023,2.36062 -1.02479,4.76657 -1.5368,7.14946 -0.512,2.38289 -1.6038798,4.63293 -2.4054198,6.94901 -0.80155,2.31607 -0.40117,3.54158 -0.60136,5.31198 -0.20019,1.77039 1.55881,3.89794 2.33861,5.84652 0.7797998,1.94857 3.0510598,1.35888 4.5769898,2.03793 1.52593,0.67904 2.07108,-1.11336 3.10701,-1.67043 1.03593,-0.55708 -0.49026,-1.29154 -0.73499,-1.93771 -0.24473,-0.64617 -0.82435,0.57935 -1.23612,0.86863 -0.41178,0.28928 0.46745,0.55707 0.70158,0.83521 -0.23413,-0.27814 -1.38063,-0.67957 -0.96885,-0.96885 z m -3.10701,26.66014 c 0.84609,0.5348 3.74204,1.4029 3.20723,2.07134 -0.5348,0.66843 -0.11109,2.16016 -2.07134,1.9377 -1.96024,-0.22246 -4.9219498,1.55881 -6.0803798,-1.06908 -1.15843,-2.62788 -4.18696,-5.07838 -3.4745,-7.88445 0.71245,-2.80606 -0.73473,-4.58839 1.67043,-8.55262 2.40516,-3.96424 5.5461098,-9.71106 6.3476498,-12.02713 0.80155,-2.31607 6.15094,-3.48252 1.67044,-6.21402 -3.6529498,-2.22698 -10.1782498,-10.80241 -10.4903298,-9.95579 -0.31208,0.84662 -1.82608,2.09335 -0.93544,2.53906 0.89063,0.44572 2.45023,1.82608 2.67269,1.33635 0.22246,-0.48973 0.48973,-0.97972 0.66818,-1.46998 -0.17845,0.49026 -0.44572,0.98025 -0.66818,1.46998 -0.22246,0.48973 -1.78206,-0.89063 -2.67269,-1.33635 -0.89064,-0.44571 0.62336,-1.69244 0.93544,-2.53906 0.31208,-0.84662 8.3741798,6.32564 12.5616698,9.48807 4.18749,3.16243 -1.60388,4.63294 -2.40543,6.94901 -0.80154,2.31607 -4.8111098,7.92926 -7.2162798,11.89349 -2.40516,3.96424 -1.4257,5.61293 -2.13815,8.41899 -0.71246,2.80607 2.31607,5.25657 3.4745,7.88445 1.15843,2.62789 3.9196898,0.44572 5.8799298,0.66818 1.96024,0.22246 1.06882,-1.33609 1.60362,-2.00453 0.5348,-0.66843 -1.69297,-1.06881 -2.53906,-1.60361 -0.84609,-0.53481 -0.0894,0.62389 -0.13364,0.93544 0.0443,-0.31155 -0.71245,-1.47025 0.13364,-0.93544 z"
       d="m 15.381153,258.57617 c -0.02031,-0.1938 0.0125,-0.39238 0.09027,-0.57105 0.07778,-0.17867 0.200002,-0.33726 0.350337,-0.46123 0.300669,-0.24795 0.709205,-0.35015 1.096191,-0.30407 0.303301,0.0361 0.594871,0.15938 0.836169,0.34665 0.241298,0.18727 0.432223,0.43758 0.555089,0.71722 0.245734,0.55929 0.208408,1.22465 -0.05492,1.77587 -0.305307,0.6391 -0.892705,1.11822 -1.551327,1.37876 -0.658622,0.26053 -1.384336,0.31658 -2.090213,0.25827 -1.771516,-0.14633 -3.456907,-1.01271 -4.6772198,-2.3052 -1.4832173,-1.57094 -2.2671819,-3.70319 -2.53906,-5.84652 -0.2210841,-1.7429 -0.1268876,-3.51907 0.20045,-5.24517 0.4763075,-2.51164 1.4359981,-4.90161 2.17157,-7.34991 0.6415458,-2.13534 1.1167428,-4.35679 0.9688498,-6.58151 -0.148859,-2.23924 -0.9596126,-4.45951 -2.4388298,-6.1472 -0.6308171,-0.71972 -1.3819272,-1.34165 -2.2375762,-1.77036 -0.855649,-0.42871 -1.8184395,-0.65944 -2.7737338,-0.60166 -0.8143941,0.0493 -1.6343199,0.3202 -2.23838,0.86863 -0.35561877,0.32287 -0.63092195,0.74099 -0.75094917,1.20607 -0.12002722,0.46509 -0.0778146,0.97673 0.14958922,1.39981 0.20159607,0.37506 0.55079583,0.67374 0.96050335,0.78973 0.2048538,0.058 0.4227863,0.0707 0.6324153,0.0335 0.209629,-0.0372 0.410588,-0.12459 0.5786513,-0.25529 0.2605038,-0.20259 0.4368545,-0.5102 0.4800653,-0.83737 0.043211,-0.32717 -0.047232,-0.67001 -0.2462053,-0.93329 0.2068504,0.26003 0.3026068,0.60558 0.2590998,0.93499 -0.043507,0.32942 -0.2256919,0.63826 -0.4929598,0.83567 -0.1690593,0.12487 -0.3697293,0.20561 -0.577485,0.23743 -0.2077557,0.0318 -0.4222668,0.0151 -0.6239926,-0.0439 -0.4034518,-0.118 -0.74805063,-0.40451 -0.97009235,-0.76144 -0.26489852,-0.42582 -0.36018643,-0.94792 -0.29559346,-1.44523 0.064593,-0.49731 0.28373552,-0.96891 0.59627346,-1.3611 0.56721515,-0.71177 1.42163765,-1.15144 2.30519995,-1.36976 1.1254697,-0.27809 2.3260268,-0.22299 3.4331995,0.1208 1.1071726,0.34378 2.1201329,0.97178 2.9478605,1.7835 1.8532758,1.81743 2.7103488,4.48694 2.7060998,7.08264 -0.004,2.44995 -0.708787,4.84368 -1.5368,7.14946 -0.8288108,2.30801 -1.7893351,4.57535 -2.4054198,6.94901 -0.449564,1.73209 -0.7130988,3.52599 -0.60136,5.31198 0.133829,2.13907 0.8513231,4.30331 2.33861,5.84652 1.1897918,1.23453 2.8625668,2.01761 4.5769898,2.03793 0.625899,0.007 1.26223,-0.0868 1.826636,-0.35744 0.564406,-0.27065 1.052338,-0.73006 1.280374,-1.31299 0.141697,-0.36222 0.178629,-0.77309 0.05578,-1.14213 -0.06143,-0.18452 -0.16217,-0.35658 -0.297733,-0.49601 -0.135562,-0.13944 -0.306187,-0.24564 -0.493033,-0.29957 -0.280549,-0.081 -0.597202,-0.0375 -0.8385,0.12696 -0.12065,0.0822 -0.221907,0.19305 -0.291402,0.32145 -0.06949,0.1284 -0.106955,0.27422 -0.106218,0.42022 9.95e-4,0.19723 0.073,0.39336 0.199861,0.54439 0.12686,0.15102 0.307619,0.2558 0.501719,0.29082 -0.245667,-0.0258 -0.481383,-0.13814 -0.656047,-0.3128 -0.174665,-0.17467 -0.287054,-0.41038 -0.312803,-0.65605 z m -3.10701,26.66014 c 0.215537,-0.43342 0.646769,-0.74744 1.121613,-0.84142 0.474844,-0.094 0.983792,0.027 1.379118,0.30633 0.395326,0.27934 0.676145,0.7098 0.795198,1.17898 0.119054,0.46919 0.07968,0.97362 -0.0887,1.42745 -0.169336,0.4564 -0.465326,0.86091 -0.828226,1.18537 -0.3629,0.32446 -0.791413,0.57084 -1.243114,0.75233 -1.0002,0.40188 -2.118576,0.48599 -3.177377,0.28389 -1.0588004,-0.20211 -2.0570643,-0.68492 -2.9030028,-1.35297 -1.1630224,-0.91846 -2.034374,-2.17765 -2.5952073,-3.54938 -0.5608332,-1.37174 -0.8202649,-2.85429 -0.8792927,-4.33507 -0.1166227,-2.92561 0.5406814,-5.85142 1.67043,-8.55262 1.7505378,-4.18549 4.6013688,-7.83986 6.3476498,-12.02713 0.828091,-1.98561 1.400384,-4.07967 1.67044,-6.21402 0.200247,-1.58263 0.233443,-3.19825 -0.06306,-4.7657 -0.296507,-1.56745 -0.934892,-3.08895 -1.971368,-4.3016 -1.036476,-1.21266 -2.4880597,-2.09813 -4.0686118,-2.31418 -0.790276,-0.10802 -1.6051373,-0.0489 -2.3657554,0.1912 -0.7606182,0.24014 -1.4654358,0.66268 -2.0215306,1.23449 -0.3267419,0.33597 -0.6035468,0.72544 -0.7776607,1.16055 -0.1741139,0.43511 -0.242333,0.91754 -0.1577793,1.37851 0.1063395,0.57974 0.4687274,1.11703 0.9892409,1.39356 0.2602568,0.13827 0.5558794,0.21094 0.8504762,0.20297 0.2945968,-0.008 0.5873869,-0.0973 0.8329729,-0.26018 0.2363612,-0.15679 0.4274617,-0.38099 0.5448317,-0.6392 0.11737,-0.25821 0.1606346,-0.54961 0.1233483,-0.83078 0.036183,0.28111 -0.00759,0.57207 -0.1248699,0.83009 -0.1172849,0.25803 -0.3077217,0.48231 -0.5433101,0.63989 -0.2456471,0.1643 -0.538809,0.25525 -0.8341945,0.26451 -0.2953855,0.009 -0.5921982,-0.0625 -0.8534289,-0.20072 -0.5224616,-0.27638 -0.8855224,-0.81752 -0.9850666,-1.40014 -0.078642,-0.46028 -0.00227,-0.93939 0.1737588,-1.37189 0.176025,-0.4325 0.4484476,-0.82087 0.7616812,-1.16717 1.1727459,-1.29656 2.9396676,-2.0018 4.6878003,-1.98096 1.7481326,0.0208 3.4593195,0.73964 4.7766485,1.88901 1.317329,1.14937 2.248312,2.71047 2.747934,4.38582 0.499622,1.67534 0.579057,3.46111 0.349287,5.1942 -0.323889,2.443 -1.248208,4.77323 -2.40543,6.94901 -2.178872,4.09666 -5.1912889,7.71862 -7.2162798,11.89349 -1.2746662,2.62794 -2.1490747,5.49825 -2.13815,8.41899 0.00557,1.48932 0.2450533,2.98791 0.8109298,4.36555 0.5658766,1.37763 1.4676295,2.6313 2.6635702,3.5189 0.8371078,0.62128 1.8192544,1.05978 2.8522278,1.20015 1.032974,0.14037 2.115876,-0.0267 3.027702,-0.53197 0.386398,-0.21412 0.742181,-0.4886 1.025621,-0.82744 0.28344,-0.33884 0.492936,-0.7436 0.577999,-1.17709 0.06796,-0.34633 0.05515,-0.71072 -0.05614,-1.04566 -0.11129,-0.33493 -0.323299,-0.63874 -0.611085,-0.84305 -0.287786,-0.20432 -0.651659,-0.30473 -1.001465,-0.25782 -0.349807,0.0469 -0.680291,0.24554 -0.870374,0.54292 -0.174902,0.27363 -0.224926,0.62378 -0.13364,0.93544 -0.05663,-0.31536 -0.009,-0.64855 0.13364,-0.93544 z" />
  </g>
</svg>
