<?xml version="1.0" encoding="UTF-8" standalone="no"?>
<!-- Created with Inkscape (http://www.inkscape.org/) -->

<svg
   xmlns:dc="http://purl.org/dc/elements/1.1/"
   xmlns:cc="http://creativecommons.org/ns#"
   xmlns:rdf="http://www.w3.org/1999/02/22-rdf-syntax-ns#"
   xmlns:svg="http://www.w3.org/2000/svg"
   xmlns="http://www.w3.org/2000/svg"
   xmlns:sodipodi="http://sodipodi.sourceforge.net/DTD/sodipodi-0.dtd"
   xmlns:inkscape="http://www.inkscape.org/namespaces/inkscape"
   width="800"
   height="80"
   viewBox="0 0 211.66666 21.166667"
   version="1.1"
   id="svg4592"
   inkscape:version="0.92.2 (5c3e80d, 2017-08-06)"
   sodipodi:docname="separator.svg">
  <defs
     id="defs4586">
    <inkscape:path-effect
       effect="spiro"
       id="path-effect5291"
       is_visible="true" />
    <inkscape:path-effect
       is_visible="true"
       id="path-effect5287"
       effect="spiro" />
    <inkscape:path-effect
       effect="spiro"
       id="path-effect5283"
       is_visible="true" />
    <inkscape:path-effect
       is_visible="true"
       id="path-effect5262"
       effect="spiro" />
    <inkscape:path-effect
       effect="spiro"
       id="path-effect5258"
       is_visible="true" />
    <inkscape:path-effect
       is_visible="true"
       id="path-effect5244"
       effect="spiro" />
    <inkscape:path-effect
       effect="spiro"
       id="path-effect5240"
       is_visible="true" />
  </defs>
  <sodipodi:namedview
     id="base"
     pagecolor="#ffffff"
     bordercolor="#666666"
     borderopacity="1.0"
     inkscape:pageopacity="0.0"
     inkscape:pageshadow="2"
     inkscape:zoom="1"
     inkscape:cx="396.85719"
     inkscape:cy="198.34079"
     inkscape:document-units="mm"
     inkscape:current-layer="layer1"
     showgrid="false"
     inkscape:lockguides="true"
     units="px"
     inkscape:window-width="1920"
     inkscape:window-height="1025"
     inkscape:window-x="1920"
     inkscape:window-y="27"
     inkscape:window-maximized="1" />
  <metadata
     id="metadata4589">
    <rdf:RDF>
      <cc:Work
         rdf:about="">
        <dc:format>image/svg+xml</dc:format>
        <dc:type
           rdf:resource="http://purl.org/dc/dcmitype/StillImage" />
        <dc:title></dc:title>
      </cc:Work>
    </rdf:RDF>
  </metadata>
  <g
     inkscape:label="Livello 1"
     inkscape:groupmode="layer"
     id="layer1"
     transform="translate(0,-275.83332)">
    <g
       id="g5363"
       transform="translate(-5.0982642,203.28527)">
      <g
         id="g5328">
        <path
           d="m 57.119493,89.366326 c -0.193798,-0.02031 -0.392384,0.0125 -0.571049,0.09027 -0.178666,0.07778 -0.337258,0.200002 -0.461233,0.350337 -0.247951,0.30067 -0.350149,0.709205 -0.304066,1.096191 0.03612,0.303301 0.159377,0.594872 0.34665,0.83617 0.187273,0.241299 0.43758,0.432225 0.717222,0.555092 0.559284,0.245735 1.224646,0.208411 1.775867,-0.05491 0.639101,-0.305307 1.118225,-0.892707 1.378759,-1.551331 0.260534,-0.658623 0.316573,-1.384338 0.258266,-2.090216 -0.146332,-1.771515 -1.012715,-3.456905 -2.305199,-4.677218 -1.570938,-1.483219 -3.703191,-2.267182 -5.846522,-2.539059 -1.742898,-0.221083 -3.519064,-0.126885 -5.245164,0.200451 -2.511644,0.476306 -4.901616,1.435992 -7.349913,2.171564 -2.135338,0.641545 -4.356792,1.116745 -6.581511,0.968853 -2.239243,-0.148858 -4.459515,-0.959614 -6.147199,-2.438833 -0.719717,-0.630817 -1.341649,-1.381927 -1.770356,-2.237575 -0.428707,-0.855647 -0.659438,-1.818436 -0.601661,-2.773729 0.04926,-0.814395 0.320196,-1.634322 0.868626,-2.238383 0.322868,-0.355619 0.740989,-0.630922 1.206072,-0.750948 0.465083,-0.120027 0.976728,-0.07781 1.399807,0.149592 0.375063,0.201596 0.673734,0.550795 0.789725,0.960502 0.058,0.204853 0.07072,0.422785 0.03351,0.632413 -0.03721,0.209629 -0.124588,0.410587 -0.255291,0.57865 -0.202594,0.260504 -0.5102,0.436855 -0.837369,0.480066 -0.32717,0.04321 -0.670012,-0.04723 -0.933292,-0.246206 0.260034,0.206851 0.605583,0.302608 0.934995,0.259101 0.329411,-0.04351 0.638252,-0.225693 0.835666,-0.492961 0.124873,-0.169059 0.205614,-0.369728 0.237427,-0.577483 0.03181,-0.207756 0.01507,-0.422266 -0.04393,-0.623991 -0.118002,-0.403451 -0.404516,-0.748049 -0.76144,-0.970091 -0.425816,-0.2649 -0.947916,-0.360188 -1.445227,-0.295596 -0.497311,0.06459 -0.968917,0.283736 -1.361104,0.596274 -0.711767,0.567215 -1.151438,1.421638 -1.369757,2.3052 -0.278092,1.12547 -0.222985,2.326026 0.120797,3.433199 0.343782,1.107172 0.971783,2.120133 1.783499,2.947861 1.817428,1.853278 4.48694,2.710352 7.082642,2.706103 2.449945,-0.004 4.843675,-0.708786 7.149459,-1.536801 2.308006,-0.828813 4.575349,-1.789341 6.949009,-2.405425 1.732087,-0.449563 3.525995,-0.713094 5.311981,-0.601355 2.139065,0.13383 4.303314,0.85132 5.846522,2.338607 1.234527,1.189792 2.01761,2.862568 2.037929,4.576992 0.0074,0.625899 -0.08679,1.26223 -0.357441,1.826636 -0.270649,0.564406 -0.730064,1.052338 -1.312992,1.280372 -0.362218,0.141695 -0.773093,0.178627 -1.142128,0.05577 -0.184517,-0.06143 -0.356575,-0.162171 -0.496012,-0.297733 -0.139438,-0.135562 -0.245633,-0.306187 -0.299565,-0.493032 -0.08098,-0.280549 -0.03748,-0.597201 0.126963,-0.8385 0.08222,-0.12065 0.193047,-0.221907 0.321447,-0.291403 0.1284,-0.06949 0.274218,-0.106955 0.420217,-0.106219 0.197233,9.94e-4 0.393365,0.073 0.54439,0.19986 0.151024,0.126861 0.255802,0.30762 0.290825,0.501722 -0.02575,-0.245668 -0.138137,-0.481384 -0.312802,-0.656049 -0.174664,-0.174665 -0.41038,-0.287054 -0.656048,-0.312803 z m 26.660136,-3.107007 c -0.433424,0.215535 -0.747444,0.646768 -0.84143,1.121613 -0.09399,0.474845 0.027,0.983795 0.306337,1.379122 0.279334,0.395327 0.709794,0.676147 1.178983,0.795201 0.469188,0.119054 0.973623,0.07968 1.42745,-0.0887 0.456398,-0.169336 0.860906,-0.465326 1.18537,-0.828226 0.324464,-0.362901 0.570837,-0.791413 0.75233,-1.243114 0.40188,-1.0002 0.485993,-2.118576 0.283886,-3.177377 -0.202107,-1.0588 -0.684913,-2.057064 -1.352966,-2.903003 -0.91846,-1.163023 -2.177646,-2.034376 -3.549381,-2.59521 -1.371734,-0.560835 -2.85429,-0.820268 -4.335069,-0.879296 -2.925614,-0.116624 -5.851423,0.540683 -8.552623,1.670434 -4.185489,1.75054 -7.839861,4.601372 -12.027129,6.347652 -1.98561,0.828089 -4.079664,1.400382 -6.214014,1.670436 -1.582631,0.200247 -3.198248,0.233442 -4.765698,-0.06307 -1.567451,-0.296508 -3.088944,-0.934893 -4.301601,-1.971368 -1.212657,-1.036476 -2.098127,-2.488059 -2.314174,-4.06861 -0.108024,-0.790275 -0.04894,-1.605136 0.191195,-2.365755 0.240135,-0.760618 0.66268,-1.465436 1.234486,-2.021531 0.335974,-0.326743 0.725439,-0.603549 1.160552,-0.777663 0.435113,-0.174115 0.917543,-0.242334 1.378509,-0.157781 0.579738,0.106339 1.117036,0.468729 1.393566,0.989244 0.138264,0.260257 0.210935,0.555881 0.202964,0.850478 -0.008,0.294598 -0.09728,0.587388 -0.260183,0.832974 -0.156788,0.23636 -0.380988,0.42746 -0.6392,0.544829 -0.258211,0.117368 -0.54961,0.160632 -0.830783,0.123344 0.28111,0.03619 0.572067,-0.0076 0.830092,-0.124866 0.258024,-0.117284 0.482314,-0.307719 0.639891,-0.543307 0.164306,-0.245647 0.255252,-0.538809 0.264511,-0.834195 0.0093,-0.295386 -0.06253,-0.5922 -0.200717,-0.853432 -0.276382,-0.522463 -0.817521,-0.885525 -1.400141,-0.985069 -0.46028,-0.07864 -0.939389,-0.0023 -1.37189,0.17376 -0.432501,0.176026 -0.820867,0.44845 -1.167171,0.761684 -1.296558,1.172747 -2.001794,2.939668 -1.980952,4.6878 0.02084,1.748132 0.739643,3.459318 1.88901,4.776646 1.149367,1.317329 2.710467,2.248312 4.385811,2.747934 1.675343,0.499622 3.46111,0.579058 5.194201,0.349288 2.443002,-0.323888 4.773229,-1.248207 6.949006,-2.405427 4.09666,-2.178871 7.718629,-5.191284 11.893494,-7.216278 2.627942,-1.274668 5.498245,-2.149081 8.418988,-2.138156 1.489319,0.0056 2.987909,0.245055 4.365546,0.810933 1.377638,0.565878 2.631308,1.467632 3.518904,2.663573 0.621279,0.837108 1.059785,1.819254 1.200155,2.852227 0.14037,1.032973 -0.02669,2.115876 -0.531975,3.027701 -0.214121,0.386397 -0.488605,0.74218 -0.827444,1.025619 -0.33884,0.28344 -0.743595,0.492935 -1.177086,0.577999 -0.346334,0.06796 -0.710724,0.05515 -1.045658,-0.05613 -0.334933,-0.11129 -0.638745,-0.323299 -0.84306,-0.611086 -0.204315,-0.287786 -0.304724,-0.651659 -0.257812,-1.001467 0.04691,-0.349807 0.24554,-0.680291 0.54292,-0.870373 0.273629,-0.174901 0.623784,-0.224923 0.93544,-0.133635 -0.315361,-0.05663 -0.64855,-0.009 -0.93544,0.133635 z"
           inkscape:original-d="m 57.119493,89.366326 c -0.28928,0.411776 -1.982514,1.29207 -1.336348,1.536801 0.646165,0.244732 2.282661,2.372281 2.839739,1.336348 0.557075,-1.035934 2.316071,-2.115621 1.637025,-3.641547 -0.679045,-1.525929 -0.356625,-3.897417 -2.305199,-4.677218 -1.948577,-0.779802 -4.076126,-2.739249 -5.846522,-2.539059 -1.770395,0.200186 -2.929094,-0.601094 -5.245164,0.200451 -2.316072,0.801545 -4.967022,1.659564 -7.349913,2.171564 -2.382887,0.512003 -4.220893,1.871153 -6.581511,0.968853 -2.360615,-0.902298 -5.512699,-0.311549 -6.147199,-2.438833 -0.634501,-2.127285 -2.828866,-4.242641 -2.372017,-5.011304 0.456851,-0.768664 -0.06708,-2.137892 0.868626,-2.238383 0.935708,-0.100492 2.416297,-1.324947 2.605879,-0.601356 0.189579,0.72359 1.157901,2.093875 0.567947,2.171565 -0.589955,0.07769 -1.180177,0.15564 -1.770661,0.23386 0.590484,-0.07822 1.180706,-0.15617 1.770661,-0.23386 0.589954,-0.07769 -0.378368,-1.447975 -0.567947,-2.171565 -0.189582,-0.723591 -1.870623,0.200186 -2.806331,0.300678 -0.935708,0.100491 -0.912906,1.536536 -1.369757,2.3052 -0.456849,0.768663 1.269795,4.253775 1.904296,6.38106 0.6345,2.127284 4.722027,1.803805 7.082642,2.706103 2.360618,0.9023 4.766572,-1.024798 7.149459,-1.536801 2.382891,-0.512 4.632937,-1.60388 6.949009,-2.405425 2.31607,-0.801545 3.541586,-0.401169 5.311981,-0.601355 1.770396,-0.20019 3.897945,1.558805 5.846522,2.338607 1.948574,0.779801 1.358884,3.051063 2.037929,4.576992 0.679046,1.525926 -1.113358,2.071074 -1.670433,3.107008 -0.557078,1.035933 -1.29154,-0.49026 -1.937705,-0.734992 -0.646166,-0.244731 0.579347,-0.824346 0.868627,-1.236122 0.289277,-0.411774 0.557075,0.467457 0.835215,0.701582 -0.27814,-0.234125 -0.679573,-1.380626 -0.96885,-0.968852 z m 26.660136,-3.107007 c 0.5348,0.84609 1.4029,3.742037 2.07134,3.207235 0.66843,-0.534805 2.16016,-0.111098 1.9377,-2.07134 -0.22246,-1.96024 1.55881,-4.92195 -1.06908,-6.08038 -2.62788,-1.158433 -5.07838,-4.18696 -7.88445,-3.474506 -2.80606,0.712454 -4.58839,-0.734726 -8.552623,1.670434 -3.964233,2.405163 -9.711057,5.54611 -12.027129,6.347652 -2.31607,0.801544 -3.482521,6.15094 -6.214014,1.670436 C 49.814389,83.8759 41.238962,77.3506 42.085581,77.038521 c 0.846619,-0.312081 2.093347,-1.826077 2.539061,-0.935444 0.445715,0.890635 1.826078,2.450234 1.336347,2.672696 -0.489728,0.222459 -0.979723,0.489728 -1.469983,0.668173 0.49026,-0.178445 0.980255,-0.445714 1.469983,-0.668173 0.489731,-0.222462 -0.890632,-1.782061 -1.336347,-2.672696 -0.445714,-0.890633 -1.692442,0.623363 -2.539061,0.935444 -0.846619,0.312079 6.325643,8.374179 9.48807,12.561668 3.162424,4.187487 4.632936,-1.603883 6.949006,-2.405427 2.316072,-0.801542 7.929261,-4.811115 11.893494,-7.216278 3.964238,-2.40516 5.612928,-1.425702 8.418988,-2.138156 2.80607,-0.712454 5.25657,2.316073 7.88445,3.474506 2.62789,1.15843 0.44572,3.919688 0.66818,5.879928 0.22246,1.960242 -1.33609,1.068813 -2.00453,1.603618 -0.66843,0.534802 -1.06881,-1.692971 -1.60361,-2.539061 -0.53481,-0.84609 0.62389,-0.08935 0.93544,-0.133635 -0.31155,0.04429 -1.47025,-0.712455 -0.93544,0.133635 z"
           inkscape:path-effect="#path-effect5291"
           style="fill:#000000;fill-opacity:1;stroke:#000000;stroke-width:0.26458332;stroke-linecap:butt;stroke-linejoin:miter;stroke-miterlimit:4;stroke-dasharray:none;stroke-opacity:1"
           id="path5289"
           inkscape:connector-curvature="0" />
        <path
           style="fill:#000000;fill-opacity:1;stroke:none;stroke-width:3.00094485;stroke-linecap:square;stroke-miterlimit:4;stroke-dasharray:none;stroke-opacity:1"
           d="m 81,310.51953 v 3 h 10.903112 c 1.220186,0 -1.459708,-1.95613 -2.089844,-3 z m 23.55809,0 c 0.34694,0.33207 0.70172,0.6584 1.0625,0.97461 0.81886,0.71771 1.67164,1.3909 2.55274,2.02539 h 41.45362 c -0.17464,-0.99174 -0.2958,-1.9933 -0.35351,-3 z m 80.96144,0 c -0.81454,0.18693 -1.62567,0.38601 -2.43359,0.5957 -2.6894,0.69804 -5.34051,1.52077 -7.97266,2.4043 h 34.72852 c -2.20776,-1.26218 -4.57704,-2.25585 -7.03516,-3 z m 28.24414,0 c 2.2101,0.80817 4.34088,1.80492 6.34766,3 h 15.88476 c 1.71319,-1.00441 3.42926,-2.00392 5.14648,-3 z m 43.51759,0 c -1.58389,0.98761 -3.16284,1.98295 -4.73047,3 h 76.0579 c -0.40871,-1.03039 -0.88504,-2.03325 -1.43164,-3 z m 75.67309,0 c 0.58882,0.96487 1.10967,1.96832 1.56836,3 H 401.5 v -3 z"
           transform="scale(0.26458333)"
           id="rect5299"
           inkscape:connector-curvature="0"
           sodipodi:nodetypes="ccsccccccccccccccccccccccccccccc" />
        <circle
           style="fill:#000000;fill-opacity:1;stroke:#000000;stroke-width:0.26458323;stroke-linecap:square;stroke-miterlimit:4;stroke-dasharray:none;stroke-opacity:1"
           id="path5267"
           cx="12.377101"
           cy="82.555168"
           r="0.92604172" />
        <path
           style="fill:#000000;fill-opacity:1;stroke:none;stroke-width:0.26458332;stroke-linecap:butt;stroke-linejoin:miter;stroke-miterlimit:4;stroke-dasharray:none;stroke-opacity:1"
           d="m 41.428447,82.140355 h 1.368086 l -1.223322,0.449747 z"
           id="path5310"
           inkscape:connector-curvature="0"
           sodipodi:nodetypes="cccc" />
        <path
           style="fill:#000000;fill-opacity:1;stroke:none;stroke-width:0.26458332;stroke-linecap:square;stroke-miterlimit:4;stroke-dasharray:none;stroke-opacity:1"
           d="m 21.676803,82.555166 c 0,0.949815 -0.684583,1.719792 -2.221415,1.719792 -1.536832,0 -4.232618,-1.719792 -4.232618,-1.719792 0,0 2.695786,-1.719792 4.232618,-1.719792 1.536832,0 2.221415,0.769977 2.221415,1.719792 z"
           id="path5312"
           inkscape:connector-curvature="0"
           sodipodi:nodetypes="sscss" />
        <circle
           r="0.66145837"
           cy="82.555168"
           cx="8.7376823"
           id="circle5315"
           style="fill:#000000;fill-opacity:1;stroke:#000000;stroke-width:0.26458323;stroke-linecap:square;stroke-miterlimit:4;stroke-dasharray:none;stroke-opacity:1" />
        <circle
           style="fill:#000000;fill-opacity:1;stroke:#000000;stroke-width:0.26458323;stroke-linecap:square;stroke-miterlimit:4;stroke-dasharray:none;stroke-opacity:1"
           id="circle5317"
           cx="5.6274309"
           cy="82.555168"
           r="0.39687505" />
      </g>
      <rect
         transform="rotate(45)"
         y="-21.767872"
         x="135.21121"
         height="3.3072917"
         width="3.3072917"
         id="rect5319"
         style="fill:none;fill-opacity:1;stroke:#000000;stroke-width:0.5291667;stroke-linecap:square;stroke-miterlimit:4;stroke-dasharray:none;stroke-opacity:1" />
      <g
         transform="matrix(-1,0,0,1,222.00195,-9.625719e-7)"
         id="g5344">
        <path
           inkscape:connector-curvature="0"
           id="path5330"
           style="fill:#000000;fill-opacity:1;stroke:#000000;stroke-width:0.26458332;stroke-linecap:butt;stroke-linejoin:miter;stroke-miterlimit:4;stroke-dasharray:none;stroke-opacity:1"
           inkscape:path-effect="#path-effect5291"
           inkscape:original-d="m 57.119493,89.366326 c -0.28928,0.411776 -1.982514,1.29207 -1.336348,1.536801 0.646165,0.244732 2.282661,2.372281 2.839739,1.336348 0.557075,-1.035934 2.316071,-2.115621 1.637025,-3.641547 -0.679045,-1.525929 -0.356625,-3.897417 -2.305199,-4.677218 -1.948577,-0.779802 -4.076126,-2.739249 -5.846522,-2.539059 -1.770395,0.200186 -2.929094,-0.601094 -5.245164,0.200451 -2.316072,0.801545 -4.967022,1.659564 -7.349913,2.171564 -2.382887,0.512003 -4.220893,1.871153 -6.581511,0.968853 -2.360615,-0.902298 -5.512699,-0.311549 -6.147199,-2.438833 -0.634501,-2.127285 -2.828866,-4.242641 -2.372017,-5.011304 0.456851,-0.768664 -0.06708,-2.137892 0.868626,-2.238383 0.935708,-0.100492 2.416297,-1.324947 2.605879,-0.601356 0.189579,0.72359 1.157901,2.093875 0.567947,2.171565 -0.589955,0.07769 -1.180177,0.15564 -1.770661,0.23386 0.590484,-0.07822 1.180706,-0.15617 1.770661,-0.23386 0.589954,-0.07769 -0.378368,-1.447975 -0.567947,-2.171565 -0.189582,-0.723591 -1.870623,0.200186 -2.806331,0.300678 -0.935708,0.100491 -0.912906,1.536536 -1.369757,2.3052 -0.456849,0.768663 1.269795,4.253775 1.904296,6.38106 0.6345,2.127284 4.722027,1.803805 7.082642,2.706103 2.360618,0.9023 4.766572,-1.024798 7.149459,-1.536801 2.382891,-0.512 4.632937,-1.60388 6.949009,-2.405425 2.31607,-0.801545 3.541586,-0.401169 5.311981,-0.601355 1.770396,-0.20019 3.897945,1.558805 5.846522,2.338607 1.948574,0.779801 1.358884,3.051063 2.037929,4.576992 0.679046,1.525926 -1.113358,2.071074 -1.670433,3.107008 -0.557078,1.035933 -1.29154,-0.49026 -1.937705,-0.734992 -0.646166,-0.244731 0.579347,-0.824346 0.868627,-1.236122 0.289277,-0.411774 0.557075,0.467457 0.835215,0.701582 -0.27814,-0.234125 -0.679573,-1.380626 -0.96885,-0.968852 z m 26.660136,-3.107007 c 0.5348,0.84609 1.4029,3.742037 2.07134,3.207235 0.66843,-0.534805 2.16016,-0.111098 1.9377,-2.07134 -0.22246,-1.96024 1.55881,-4.92195 -1.06908,-6.08038 -2.62788,-1.158433 -5.07838,-4.18696 -7.88445,-3.474506 -2.80606,0.712454 -4.58839,-0.734726 -8.552623,1.670434 -3.964233,2.405163 -9.711057,5.54611 -12.027129,6.347652 -2.31607,0.801544 -3.482521,6.15094 -6.214014,1.670436 C 49.814389,83.8759 41.238962,77.3506 42.085581,77.038521 c 0.846619,-0.312081 2.093347,-1.826077 2.539061,-0.935444 0.445715,0.890635 1.826078,2.450234 1.336347,2.672696 -0.489728,0.222459 -0.979723,0.489728 -1.469983,0.668173 0.49026,-0.178445 0.980255,-0.445714 1.469983,-0.668173 0.489731,-0.222462 -0.890632,-1.782061 -1.336347,-2.672696 -0.445714,-0.890633 -1.692442,0.623363 -2.539061,0.935444 -0.846619,0.312079 6.325643,8.374179 9.48807,12.561668 3.162424,4.187487 4.632936,-1.603883 6.949006,-2.405427 2.316072,-0.801542 7.929261,-4.811115 11.893494,-7.216278 3.964238,-2.40516 5.612928,-1.425702 8.418988,-2.138156 2.80607,-0.712454 5.25657,2.316073 7.88445,3.474506 2.62789,1.15843 0.44572,3.919688 0.66818,5.879928 0.22246,1.960242 -1.33609,1.068813 -2.00453,1.603618 -0.66843,0.534802 -1.06881,-1.692971 -1.60361,-2.539061 -0.53481,-0.84609 0.62389,-0.08935 0.93544,-0.133635 -0.31155,0.04429 -1.47025,-0.712455 -0.93544,0.133635 z"
           d="m 57.119493,89.366326 c -0.193798,-0.02031 -0.392384,0.0125 -0.571049,0.09027 -0.178666,0.07778 -0.337258,0.200002 -0.461233,0.350337 -0.247951,0.30067 -0.350149,0.709205 -0.304066,1.096191 0.03612,0.303301 0.159377,0.594872 0.34665,0.83617 0.187273,0.241299 0.43758,0.432225 0.717222,0.555092 0.559284,0.245735 1.224646,0.208411 1.775867,-0.05491 0.639101,-0.305307 1.118225,-0.892707 1.378759,-1.551331 0.260534,-0.658623 0.316573,-1.384338 0.258266,-2.090216 -0.146332,-1.771515 -1.012715,-3.456905 -2.305199,-4.677218 -1.570938,-1.483219 -3.703191,-2.267182 -5.846522,-2.539059 -1.742898,-0.221083 -3.519064,-0.126885 -5.245164,0.200451 -2.511644,0.476306 -4.901616,1.435992 -7.349913,2.171564 -2.135338,0.641545 -4.356792,1.116745 -6.581511,0.968853 -2.239243,-0.148858 -4.459515,-0.959614 -6.147199,-2.438833 -0.719717,-0.630817 -1.341649,-1.381927 -1.770356,-2.237575 -0.428707,-0.855647 -0.659438,-1.818436 -0.601661,-2.773729 0.04926,-0.814395 0.320196,-1.634322 0.868626,-2.238383 0.322868,-0.355619 0.740989,-0.630922 1.206072,-0.750948 0.465083,-0.120027 0.976728,-0.07781 1.399807,0.149592 0.375063,0.201596 0.673734,0.550795 0.789725,0.960502 0.058,0.204853 0.07072,0.422785 0.03351,0.632413 -0.03721,0.209629 -0.124588,0.410587 -0.255291,0.57865 -0.202594,0.260504 -0.5102,0.436855 -0.837369,0.480066 -0.32717,0.04321 -0.670012,-0.04723 -0.933292,-0.246206 0.260034,0.206851 0.605583,0.302608 0.934995,0.259101 0.329411,-0.04351 0.638252,-0.225693 0.835666,-0.492961 0.124873,-0.169059 0.205614,-0.369728 0.237427,-0.577483 0.03181,-0.207756 0.01507,-0.422266 -0.04393,-0.623991 -0.118002,-0.403451 -0.404516,-0.748049 -0.76144,-0.970091 -0.425816,-0.2649 -0.947916,-0.360188 -1.445227,-0.295596 -0.497311,0.06459 -0.968917,0.283736 -1.361104,0.596274 -0.711767,0.567215 -1.151438,1.421638 -1.369757,2.3052 -0.278092,1.12547 -0.222985,2.326026 0.120797,3.433199 0.343782,1.107172 0.971783,2.120133 1.783499,2.947861 1.817428,1.853278 4.48694,2.710352 7.082642,2.706103 2.449945,-0.004 4.843675,-0.708786 7.149459,-1.536801 2.308006,-0.828813 4.575349,-1.789341 6.949009,-2.405425 1.732087,-0.449563 3.525995,-0.713094 5.311981,-0.601355 2.139065,0.13383 4.303314,0.85132 5.846522,2.338607 1.234527,1.189792 2.01761,2.862568 2.037929,4.576992 0.0074,0.625899 -0.08679,1.26223 -0.357441,1.826636 -0.270649,0.564406 -0.730064,1.052338 -1.312992,1.280372 -0.362218,0.141695 -0.773093,0.178627 -1.142128,0.05577 -0.184517,-0.06143 -0.356575,-0.162171 -0.496012,-0.297733 -0.139438,-0.135562 -0.245633,-0.306187 -0.299565,-0.493032 -0.08098,-0.280549 -0.03748,-0.597201 0.126963,-0.8385 0.08222,-0.12065 0.193047,-0.221907 0.321447,-0.291403 0.1284,-0.06949 0.274218,-0.106955 0.420217,-0.106219 0.197233,9.94e-4 0.393365,0.073 0.54439,0.19986 0.151024,0.126861 0.255802,0.30762 0.290825,0.501722 -0.02575,-0.245668 -0.138137,-0.481384 -0.312802,-0.656049 -0.174664,-0.174665 -0.41038,-0.287054 -0.656048,-0.312803 z m 26.660136,-3.107007 c -0.433424,0.215535 -0.747444,0.646768 -0.84143,1.121613 -0.09399,0.474845 0.027,0.983795 0.306337,1.379122 0.279334,0.395327 0.709794,0.676147 1.178983,0.795201 0.469188,0.119054 0.973623,0.07968 1.42745,-0.0887 0.456398,-0.169336 0.860906,-0.465326 1.18537,-0.828226 0.324464,-0.362901 0.570837,-0.791413 0.75233,-1.243114 0.40188,-1.0002 0.485993,-2.118576 0.283886,-3.177377 -0.202107,-1.0588 -0.684913,-2.057064 -1.352966,-2.903003 -0.91846,-1.163023 -2.177646,-2.034376 -3.549381,-2.59521 -1.371734,-0.560835 -2.85429,-0.820268 -4.335069,-0.879296 -2.925614,-0.116624 -5.851423,0.540683 -8.552623,1.670434 -4.185489,1.75054 -7.839861,4.601372 -12.027129,6.347652 -1.98561,0.828089 -4.079664,1.400382 -6.214014,1.670436 -1.582631,0.200247 -3.198248,0.233442 -4.765698,-0.06307 -1.567451,-0.296508 -3.088944,-0.934893 -4.301601,-1.971368 -1.212657,-1.036476 -2.098127,-2.488059 -2.314174,-4.06861 -0.108024,-0.790275 -0.04894,-1.605136 0.191195,-2.365755 0.240135,-0.760618 0.66268,-1.465436 1.234486,-2.021531 0.335974,-0.326743 0.725439,-0.603549 1.160552,-0.777663 0.435113,-0.174115 0.917543,-0.242334 1.378509,-0.157781 0.579738,0.106339 1.117036,0.468729 1.393566,0.989244 0.138264,0.260257 0.210935,0.555881 0.202964,0.850478 -0.008,0.294598 -0.09728,0.587388 -0.260183,0.832974 -0.156788,0.23636 -0.380988,0.42746 -0.6392,0.544829 -0.258211,0.117368 -0.54961,0.160632 -0.830783,0.123344 0.28111,0.03619 0.572067,-0.0076 0.830092,-0.124866 0.258024,-0.117284 0.482314,-0.307719 0.639891,-0.543307 0.164306,-0.245647 0.255252,-0.538809 0.264511,-0.834195 0.0093,-0.295386 -0.06253,-0.5922 -0.200717,-0.853432 -0.276382,-0.522463 -0.817521,-0.885525 -1.400141,-0.985069 -0.46028,-0.07864 -0.939389,-0.0023 -1.37189,0.17376 -0.432501,0.176026 -0.820867,0.44845 -1.167171,0.761684 -1.296558,1.172747 -2.001794,2.939668 -1.980952,4.6878 0.02084,1.748132 0.739643,3.459318 1.88901,4.776646 1.149367,1.317329 2.710467,2.248312 4.385811,2.747934 1.675343,0.499622 3.46111,0.579058 5.194201,0.349288 2.443002,-0.323888 4.773229,-1.248207 6.949006,-2.405427 4.09666,-2.178871 7.718629,-5.191284 11.893494,-7.216278 2.627942,-1.274668 5.498245,-2.149081 8.418988,-2.138156 1.489319,0.0056 2.987909,0.245055 4.365546,0.810933 1.377638,0.565878 2.631308,1.467632 3.518904,2.663573 0.621279,0.837108 1.059785,1.819254 1.200155,2.852227 0.14037,1.032973 -0.02669,2.115876 -0.531975,3.027701 -0.214121,0.386397 -0.488605,0.74218 -0.827444,1.025619 -0.33884,0.28344 -0.743595,0.492935 -1.177086,0.577999 -0.346334,0.06796 -0.710724,0.05515 -1.045658,-0.05613 -0.334933,-0.11129 -0.638745,-0.323299 -0.84306,-0.611086 -0.204315,-0.287786 -0.304724,-0.651659 -0.257812,-1.001467 0.04691,-0.349807 0.24554,-0.680291 0.54292,-0.870373 0.273629,-0.174901 0.623784,-0.224923 0.93544,-0.133635 -0.315361,-0.05663 -0.64855,-0.009 -0.93544,0.133635 z" />
        <path
           sodipodi:nodetypes="ccsccccccccccccccccccccccccccccc"
           inkscape:connector-curvature="0"
           id="path5332"
           transform="scale(0.26458333)"
           d="m 81,310.51953 v 3 h 10.903112 c 1.220186,0 -1.459708,-1.95613 -2.089844,-3 z m 23.55809,0 c 0.34694,0.33207 0.70172,0.6584 1.0625,0.97461 0.81886,0.71771 1.67164,1.3909 2.55274,2.02539 h 41.45362 c -0.17464,-0.99174 -0.2958,-1.9933 -0.35351,-3 z m 80.96144,0 c -0.81454,0.18693 -1.62567,0.38601 -2.43359,0.5957 -2.6894,0.69804 -5.34051,1.52077 -7.97266,2.4043 h 34.72852 c -2.20776,-1.26218 -4.57704,-2.25585 -7.03516,-3 z m 28.24414,0 c 2.2101,0.80817 4.34088,1.80492 6.34766,3 h 15.88476 c 1.71319,-1.00441 3.42926,-2.00392 5.14648,-3 z m 43.51759,0 c -1.58389,0.98761 -3.16284,1.98295 -4.73047,3 h 76.0579 c -0.40871,-1.03039 -0.88504,-2.03325 -1.43164,-3 z m 75.67309,0 c 0.58882,0.96487 1.10967,1.96832 1.56836,3 H 401.5 v -3 z"
           style="fill:#000000;fill-opacity:1;stroke:none;stroke-width:3.00094485;stroke-linecap:square;stroke-miterlimit:4;stroke-dasharray:none;stroke-opacity:1" />
        <circle
           r="0.92604172"
           cy="82.555168"
           cx="12.377101"
           id="circle5334"
           style="fill:#000000;fill-opacity:1;stroke:#000000;stroke-width:0.26458323;stroke-linecap:square;stroke-miterlimit:4;stroke-dasharray:none;stroke-opacity:1" />
        <path
           sodipodi:nodetypes="cccc"
           inkscape:connector-curvature="0"
           id="path5336"
           d="m 41.428447,82.140355 h 1.368086 l -1.223322,0.449747 z"
           style="fill:#000000;fill-opacity:1;stroke:none;stroke-width:0.26458332;stroke-linecap:butt;stroke-linejoin:miter;stroke-miterlimit:4;stroke-dasharray:none;stroke-opacity:1" />
        <path
           sodipodi:nodetypes="sscss"
           inkscape:connector-curvature="0"
           id="path5338"
           d="m 21.676803,82.555166 c 0,0.949815 -0.684583,1.719792 -2.221415,1.719792 -1.536832,0 -4.232618,-1.719792 -4.232618,-1.719792 0,0 2.695786,-1.719792 4.232618,-1.719792 1.536832,0 2.221415,0.769977 2.221415,1.719792 z"
           style="fill:#000000;fill-opacity:1;stroke:none;stroke-width:0.26458332;stroke-linecap:square;stroke-miterlimit:4;stroke-dasharray:none;stroke-opacity:1" />
        <circle
           style="fill:#000000;fill-opacity:1;stroke:#000000;stroke-width:0.26458323;stroke-linecap:square;stroke-miterlimit:4;stroke-dasharray:none;stroke-opacity:1"
           id="circle5340"
           cx="8.7376823"
           cy="82.555168"
           r="0.66145837" />
        <circle
           r="0.39687505"
           cy="82.555168"
           cx="5.6274309"
           id="circle5342"
           style="fill:#000000;fill-opacity:1;stroke:#000000;stroke-width:0.26458323;stroke-linecap:square;stroke-miterlimit:4;stroke-dasharray:none;stroke-opacity:1" />
      </g>
    </g>
  </g>
</svg>
